<?xml version="1.0" encoding="iso-8859-1"?>
<!-- Uploaded to: SVG Repo, www.svgrepo.com, Generator: SVG Repo Mixer Tools -->
<svg height="800px" width="800px" version="1.1" id="Layer_1" xmlns="http://www.w3.org/2000/svg" xmlns:xlink="http://www.w3.org/1999/xlink" 
	 viewBox="0 0 512 512" xml:space="preserve">
<g transform="translate(1 1)">
	<polygon style="fill:#F0F0F0;" points="101.4,493.933 75.8,476.867 50.2,493.933 50.2,451.267 101.4,451.267 	"/>
	<path style="fill:#FFFFFF;" d="M169.667,451.267h-153.6V7.533h153.6c14.507,0,25.6,11.093,25.6,25.6v392.533
		C195.267,440.173,184.173,451.267,169.667,451.267"/>
	<path style="fill:#CCCCCC;" d="M340.333,451.267h-153.6V7.533h153.6c14.507,0,25.6,11.093,25.6,25.6v392.533
		C365.933,440.173,354.84,451.267,340.333,451.267"/>
	<path style="fill:#E2E3E5;" d="M314.733,451.267H41.667V7.533h273.067c14.507,0,25.6,11.093,25.6,25.6v392.533
		C340.333,440.173,329.24,451.267,314.733,451.267"/>
	<g>
		<polygon style="fill:#F0F0F0;" points="272.067,451.267 314.733,451.267 314.733,7.533 272.067,7.533 		"/>
		<path style="fill:#F0F0F0;" d="M493.933,425.667L459.8,485.4l-34.133-59.733V24.6c0-9.387,7.68-17.067,17.067-17.067h34.133
			c9.387,0,17.067,7.68,17.067,17.067V425.667z"/>
	</g>
	<polygon style="fill:#E0E0E0;" points="425.667,101.4 493.933,101.4 493.933,67.267 425.667,67.267 	"/>
	<g>
		<path style="fill:#B6B6B6;" d="M340.333,459.8H16.067c-5.12,0-8.533-3.413-8.533-8.533V7.533C7.533,2.413,10.947-1,16.067-1
			h324.267c18.773,0,34.133,15.36,34.133,34.133v392.533C374.467,444.44,359.107,459.8,340.333,459.8z M24.6,442.733h315.733
			c9.387,0,17.067-7.68,17.067-17.067V33.133c0-9.387-7.68-17.067-17.067-17.067H24.6V442.733z"/>
		<path style="fill:#B6B6B6;" d="M314.733,459.8h-42.667c-5.12,0-8.533-3.413-8.533-8.533V7.533c0-5.12,3.413-8.533,8.533-8.533
			h42.667c5.12,0,8.533,3.413,8.533,8.533v443.733C323.267,456.387,319.853,459.8,314.733,459.8z M280.6,442.733h25.6V16.067h-25.6
			V442.733z"/>
		<path style="fill:#B6B6B6;" d="M272.067,314.733h-256c-5.12,0-8.533-3.413-8.533-8.533V152.6c0-5.12,3.413-8.533,8.533-8.533h256
			c5.12,0,8.533,3.413,8.533,8.533v153.6C280.6,311.32,277.187,314.733,272.067,314.733z M24.6,297.667h238.933V161.133H24.6
			V297.667z"/>
		<path style="fill:#B6B6B6;" d="M365.933,314.733h-51.2c-5.12,0-8.533-3.413-8.533-8.533V152.6c0-5.12,3.413-8.533,8.533-8.533
			h51.2c5.12,0,8.533,3.413,8.533,8.533v153.6C374.467,311.32,371.053,314.733,365.933,314.733z M323.267,297.667H357.4V161.133
			h-34.133V297.667z"/>
		<path style="fill:#B6B6B6;" d="M101.4,502.467c-1.707,0-3.413-0.853-5.12-1.707L75.8,487.107L55.32,500.76
			c-2.56,1.707-5.973,1.707-8.533,0c-3.413-0.853-5.12-3.413-5.12-6.827v-42.667c0-5.12,3.413-8.533,8.533-8.533h51.2
			c5.12,0,8.533,3.413,8.533,8.533v42.667c0,3.413-1.707,5.973-4.267,7.68C103.96,502.467,103.107,502.467,101.4,502.467z
			 M75.8,468.333c1.707,0,3.413,0.853,5.12,1.707l11.947,8.533V459.8H58.733v17.92l11.947-8.533
			C72.387,469.187,74.093,468.333,75.8,468.333z"/>
		<path style="fill:#B6B6B6;" d="M459.8,493.933c-3.413,0-5.973-1.707-7.68-4.267l-34.133-59.733
			c-0.853-1.707-0.853-2.56-0.853-4.267V24.6c0-13.653,11.093-25.6,25.6-25.6h34.133c13.653,0,25.6,11.093,25.6,25.6v401.067
			c0,1.707,0,2.56-0.853,4.267l-34.133,59.733C465.773,492.227,463.213,493.933,459.8,493.933z M434.2,423.107l25.6,44.373
			l25.6-44.373V24.6c0-4.267-3.413-8.533-8.533-8.533h-34.133c-4.267,0-8.533,3.413-8.533,8.533V423.107z M493.933,425.667
			L493.933,425.667L493.933,425.667z"/>
		<path style="fill:#B6B6B6;" d="M493.933,109.933h-68.267c-5.12,0-8.533-3.413-8.533-8.533V67.267c0-5.12,3.413-8.533,8.533-8.533
			h68.267c5.12,0,8.533,3.413,8.533,8.533V101.4C502.467,106.52,499.053,109.933,493.933,109.933z M434.2,92.867h51.2V75.8h-51.2
			V92.867z"/>
		<path style="fill:#B6B6B6;" d="M493.933,434.2h-68.267c-5.12,0-8.533-3.413-8.533-8.533s3.413-8.533,8.533-8.533h68.267
			c5.12,0,8.533,3.413,8.533,8.533S499.053,434.2,493.933,434.2z"/>
		<path style="fill:#B6B6B6;" d="M459.8,511c-5.12,0-8.533-3.413-8.533-8.533V485.4c0-5.12,3.413-8.533,8.533-8.533
			s8.533,3.413,8.533,8.533v17.067C468.333,507.587,464.92,511,459.8,511z"/>
	</g>
</g>
</svg>